<?xml version="1.0" standalone="no"?>
<!DOCTYPE svg PUBLIC "-//W3C//DTD SVG 20010904//EN"
 "http://www.w3.org/TR/2001/REC-SVG-20010904/DTD/svg10.dtd">
<svg version="1.0" xmlns="http://www.w3.org/2000/svg"
 width="660.000000pt" height="678.000000pt" viewBox="0 0 660.000000 678.000000"
 preserveAspectRatio="xMidYMid meet">

<g transform="translate(0.000000,678.000000) scale(0.100000,-0.100000)"
fill="#000000" stroke="none">
<path d="M3060 6679 c-102 -10 -149 -18 -250 -43 -36 -9 -125 -27 -198 -41
-330 -63 -690 -264 -1061 -591 -432 -380 -690 -829 -800 -1394 -59 -299 -62
-354 -36 -650 10 -115 19 -414 26 -870 5 -382 12 -728 15 -767 8 -103 -11 -92
-26 14 -13 95 -28 674 -29 1153 -1 162 -8 375 -16 473 -8 97 -11 201 -8 230 3
28 3 50 1 47 -3 -3 -39 -75 -79 -160 -40 -85 -107 -216 -148 -290 -41 -74 -80
-146 -87 -160 -17 -30 -19 -383 -4 -528 8 -78 17 -106 54 -180 70 -141 114
-262 151 -423 42 -176 74 -269 120 -348 37 -62 119 -146 160 -161 36 -14 80
-12 93 3 6 6 12 65 14 129 3 112 4 119 30 144 37 37 99 37 136 0 l27 -26 6
-288 c5 -212 11 -303 22 -349 32 -122 131 -338 218 -474 55 -85 198 -229 299
-301 145 -103 356 -185 440 -172 83 13 231 -47 300 -123 l40 -43 0 -230 0
-230 100 0 c72 0 102 4 105 13 3 9 13 367 15 550 0 4 36 7 80 7 l80 0 0 -285
0 -286 108 3 107 3 5 250 5 250 80 0 80 0 5 -250 5 -250 98 -3 97 -3 1 118 c2
126 7 373 8 386 1 4 35 7 76 7 l75 0 1 -240 c1 -132 2 -246 3 -252 1 -10 28
-13 101 -13 l100 0 6 285 c3 157 7 286 7 288 4 6 128 1 139 -6 10 -6 13 -79
15 -287 l3 -280 103 -3 102 -3 2 223 c0 123 0 235 -1 249 -5 69 108 135 257
149 124 12 271 49 353 90 184 92 353 240 476 416 47 67 113 215 142 319 54
194 62 253 68 522 6 244 7 253 28 273 34 32 84 36 118 10 27 -21 27 -22 27
-150 0 -119 2 -130 20 -140 47 -25 148 24 213 103 104 128 254 476 327 760 31
121 36 157 23 157 -5 0 -30 -23 -57 -51 -26 -27 -53 -48 -60 -46 -6 2 -28 53
-49 113 -38 109 -38 109 -23 159 27 87 96 190 96 144 0 -6 -14 -43 -32 -82
-40 -89 -40 -130 -4 -229 l28 -77 32 44 c17 25 49 66 71 91 l40 47 0 246 0
246 -57 115 c-31 63 -73 153 -93 200 -42 98 -108 223 -157 297 -31 47 -35 62
-46 170 -44 424 -142 719 -347 1053 -395 641 -1167 1123 -1950 1215 -161 19
-448 26 -565 14z m574 -190 c211 -30 459 -92 581 -144 22 -9 112 -52 200 -95
314 -153 599 -372 806 -619 163 -194 380 -554 352 -582 -21 -21 -40 -2 -93 93
-247 442 -634 828 -1078 1077 -41 23 -76 41 -78 41 -2 0 -4 -384 -4 -854 0
-671 -3 -856 -12 -863 -7 -6 -53 -25 -103 -42 -273 -97 -560 -229 -755 -347
-82 -50 -103 -58 -157 -62 -87 -6 -138 13 -358 138 -104 59 -230 129 -280 155
-136 72 -426 236 -458 258 -16 10 -31 16 -35 12 -4 -4 -7 -53 -7 -110 0 -141
-16 -126 316 -298 186 -96 378 -199 499 -269 246 -142 336 -178 445 -178 81 0
148 19 285 80 63 28 156 67 205 87 50 19 149 63 220 97 103 50 139 73 176 112
56 61 125 198 140 279 14 74 17 277 6 407 -8 90 -7 98 12 117 46 46 176 18
213 -45 23 -40 37 -193 40 -460 l3 -222 135 -5 c110 -4 153 -11 235 -35 237
-69 475 -189 475 -237 0 -22 -66 -45 -183 -65 -118 -20 -271 -61 -397 -105
-41 -14 -81 -28 -89 -31 -9 -3 3 -16 32 -34 92 -58 191 -166 249 -270 114
-206 110 -472 -9 -683 -99 -176 -212 -273 -388 -333 -69 -23 -97 -27 -200 -28
-132 -1 -195 11 -291 54 -298 133 -480 451 -434 755 46 302 272 538 577 601
91 19 179 14 297 -16 44 -11 93 -20 110 -20 17 0 90 20 162 44 140 47 369 101
477 112 37 4 67 10 67 13 0 4 -28 23 -62 43 -269 156 -535 231 -734 208 -221
-25 -537 -163 -727 -318 -168 -137 -291 -342 -334 -560 -22 -112 -22 -319 1
-421 60 -271 273 -523 546 -643 167 -74 367 -93 525 -49 183 50 271 99 391
217 102 101 154 172 210 287 67 139 86 226 88 387 1 155 -9 202 -80 374 -69
168 -70 177 -43 226 38 67 69 80 193 80 l106 0 0 -67 c0 -81 21 -206 50 -299
49 -160 61 -335 35 -490 -34 -191 -85 -302 -194 -417 -139 -146 -331 -240
-911 -449 -107 -39 -208 -79 -224 -91 -43 -31 -56 -73 -56 -189 0 -124 -15
-160 -81 -198 l-44 -25 -915 0 -915 0 -42 23 c-68 35 -73 50 -73 190 0 183
-12 202 -155 253 -49 17 -124 47 -165 66 -41 19 -171 73 -288 119 -245 97
-268 108 -377 178 -241 157 -362 352 -405 651 -14 103 -12 315 5 445 11 85 15
205 14 474 -1 388 5 472 57 700 49 219 177 515 310 719 237 361 595 683 974
876 226 116 424 179 670 215 152 22 155 23 389 24 170 2 242 -2 355 -19z
m2351 -2412 c0 -65 -6 -128 -14 -149 -10 -30 -12 -187 -11 -740 2 -476 -1
-720 -9 -756 -18 -90 -42 -162 -51 -157 -5 3 -7 11 -5 18 3 7 12 53 20 102 13
72 15 156 13 425 -7 803 -4 1019 16 1120 11 54 18 133 17 184 0 71 2 87 12 77
8 -8 12 -48 12 -124z m150 -324 c26 -59 61 -135 77 -167 17 -37 25 -63 19 -69
-20 -20 -25 -10 -131 224 -34 76 -45 110 -37 118 5 5 13 8 17 6 4 -2 29 -53
55 -112z m-5601 -69 c-60 -109 -94 -150 -94 -112 0 12 123 241 144 267 9 12
12 10 14 -8 2 -13 -24 -72 -64 -147z m65 -334 c22 -41 41 -87 41 -103 0 -15
-11 -58 -23 -95 -13 -37 -27 -84 -31 -105 -4 -21 -15 -57 -26 -81 -18 -43 -18
-44 4 -92 34 -74 68 -181 64 -204 -6 -41 -20 -23 -47 60 -36 111 -68 170 -91
170 -13 0 -25 16 -39 55 -29 77 -26 115 9 115 20 0 26 -12 36 -82 3 -27 9 -48
13 -48 11 0 37 60 45 100 4 19 17 75 29 124 l21 88 -43 84 c-28 53 -41 89 -37
100 9 25 25 7 75 -86z m5506 -552 c-41 -143 -52 -167 -69 -140 -6 10 25 133
48 187 16 36 35 59 44 50 2 -2 -8 -46 -23 -97z m-4605 -576 c36 -13 83 -33
105 -42 57 -26 271 -115 396 -165 125 -50 150 -63 166 -84 9 -11 12 -68 13
-187 0 -293 9 -324 106 -372 41 -21 53 -21 1020 -22 538 0 982 -4 987 -9 5 -5
-4 -7 -20 -5 l-28 4 25 -11 25 -10 -28 -16 c-16 -8 -26 -17 -23 -20 10 -11
110 59 127 89 5 9 12 138 15 285 l6 268 25 21 c26 22 76 43 248 104 113 41
415 155 477 181 67 27 106 26 114 -5 3 -14 4 -132 2 -263 -4 -221 -7 -244 -30
-319 -114 -359 -380 -632 -694 -713 -79 -21 -92 -21 -1280 -19 l-1199 3 -84
34 c-177 71 -357 224 -460 392 -53 86 -101 215 -120 324 -30 173 -43 559 -19
583 14 14 40 8 128 -26z"/>
<path d="M3277 6129 c-118 -28 -194 -113 -204 -228 -8 -86 11 -138 71 -197 77
-78 171 -101 271 -67 121 41 191 183 155 313 -35 128 -168 209 -293 179z m104
-109 c19 -5 48 -24 65 -41 27 -28 29 -36 29 -106 0 -75 0 -75 -39 -109 -49
-43 -94 -52 -149 -30 -61 24 -97 76 -97 140 0 93 40 134 150 155 3 0 21 -4 41
-9z"/>
<path d="M2349 5268 c0 -348 -2 -641 -4 -651 -3 -18 40 -55 52 -44 3 4 6 300
6 658 -1 680 0 668 -40 669 -10 0 -13 -133 -14 -632z"/>
<path d="M3215 4966 c-99 -46 -145 -121 -145 -233 1 -110 49 -191 142 -237
171 -86 362 44 361 244 -1 188 -187 305 -358 226z m185 -110 c42 -19 70 -72
70 -134 0 -51 -3 -57 -43 -98 -72 -72 -142 -72 -214 1 -41 40 -43 46 -43 99 0
78 31 130 84 141 12 2 30 6 41 9 25 5 73 -3 105 -18z"/>
<path d="M1618 4220 c-131 -16 -338 -88 -454 -157 -100 -59 -114 -68 -114 -73
0 -12 147 -62 260 -90 41 -9 158 -37 260 -60 102 -23 190 -46 197 -52 8 -7 29
-3 66 10 196 74 411 66 585 -22 176 -88 311 -253 373 -456 32 -103 32 -254 0
-360 -75 -247 -246 -424 -491 -510 -53 -19 -86 -23 -180 -24 -136 0 -207 17
-330 76 -114 55 -245 184 -307 303 -126 244 -110 504 48 737 44 65 142 168
193 204 l30 20 -110 23 c-324 69 -593 148 -615 183 -9 14 -54 -1 -90 -32 -46
-38 -33 -50 101 -95 186 -61 237 -103 261 -209 10 -47 8 -59 -24 -156 -47
-139 -67 -242 -67 -337 1 -249 86 -459 255 -629 143 -144 275 -228 435 -278
112 -35 317 -46 427 -23 399 86 693 470 693 906 0 132 -42 289 -116 432 -118
229 -333 423 -617 559 -170 81 -285 110 -462 115 -77 2 -170 0 -207 -5z"/>
<path d="M4339 4178 c-17 -24 -18 -29 -6 -19 18 14 42 51 33 51 -3 0 -15 -15
-27 -32z"/>
<path d="M2025 3640 c-143 -30 -261 -114 -345 -247 -72 -112 -93 -297 -50
-435 54 -176 224 -327 401 -358 218 -38 453 105 545 331 83 203 40 394 -126
559 -128 128 -276 180 -425 150z m73 -145 c17 -20 22 -38 22 -80 0 -48 -3 -56
-35 -84 -99 -87 -216 30 -153 152 26 50 126 57 166 12z"/>
<path d="M4480 3644 c-107 -21 -208 -73 -272 -141 -142 -153 -195 -310 -157
-473 14 -61 76 -200 102 -229 33 -35 164 -130 217 -157 135 -68 343 -53 470
32 180 122 271 335 226 533 -45 197 -175 344 -359 407 -70 24 -178 37 -227 28z
m80 -119 c37 -19 50 -43 50 -95 0 -77 -44 -124 -115 -124 -82 0 -130 115 -79
189 31 44 92 57 144 30z"/>
<path d="M3062 2910 c0 -19 2 -27 5 -17 2 9 2 25 0 35 -3 9 -5 1 -5 -18z"/>
<path d="M3052 2765 c0 -16 2 -22 5 -12 2 9 2 23 0 30 -3 6 -5 -1 -5 -18z"/>
<path d="M2308 1333 c6 -2 18 -2 25 0 6 3 1 5 -13 5 -14 0 -19 -2 -12 -5z"/>
<path d="M2418 1283 c17 -2 47 -2 65 0 17 2 3 4 -33 4 -36 0 -50 -2 -32 -4z"/>
<path d="M2640 1280 c0 -5 7 -10 16 -10 8 0 12 5 9 10 -3 6 -10 10 -16 10 -5
0 -9 -4 -9 -10z"/>
<path d="M2780 1280 c93 -11 350 -11 325 0 -11 5 -103 8 -205 8 -134 -1 -167
-3 -120 -8z"/>
<path d="M3358 1273 c122 -2 322 -2 445 0 122 1 22 2 -223 2 -245 0 -345 -1
-222 -2z"/>
<path d="M4078 1273 c12 -2 32 -2 45 0 12 2 2 4 -23 4 -25 0 -35 -2 -22 -4z"/>
<path d="M4188 1273 c6 -2 18 -2 25 0 6 3 1 5 -13 5 -14 0 -19 -2 -12 -5z"/>
<path d="M6100 4465 c0 -5 5 -17 10 -25 5 -8 10 -10 10 -5 0 6 -5 17 -10 25
-5 8 -10 11 -10 5z"/>
<path d="M6376 3902 c-3 -5 -6 -48 -7 -95 -2 -79 -4 -86 -23 -89 -30 -4 -34
-53 -28 -315 5 -205 6 -222 23 -226 17 -5 19 -17 20 -114 1 -59 4 -119 8 -133
l7 -25 12 22 c9 16 14 136 19 408 6 371 6 385 -12 385 -15 0 -16 3 -7 12 14
14 17 164 3 173 -5 3 -12 1 -15 -3z"/>
<path d="M6427 3904 c-4 -4 -7 -25 -7 -46 0 -31 4 -38 20 -38 25 0 39 28 30
60 -6 25 -29 37 -43 24z"/>
<path d="M253 3892 c-18 -11 -25 -57 -32 -219 -3 -78 -10 -146 -16 -152 -5 -5
-21 -11 -35 -13 -17 -2 -26 -10 -28 -26 -3 -18 -8 -22 -25 -17 -12 4 -30 9
-40 11 -35 10 -57 -5 -57 -41 0 -33 1 -34 37 -29 21 3 46 7 56 9 39 8 47 -5
48 -74 1 -106 12 -166 29 -166 9 0 16 11 18 28 3 27 27 37 35 15 2 -7 2 -86
-1 -175 -4 -120 -2 -166 7 -177 7 -8 10 -20 6 -27 -5 -7 -1 -10 11 -7 27 5 32
39 26 200 -3 97 -1 152 6 160 17 22 21 115 11 288 -5 91 -13 221 -17 289 -7
120 -13 140 -39 123z"/>
<path d="M177 3823 c-11 -11 -8 -261 3 -268 12 -7 11 -15 11 143 1 122 -1 138
-14 125z"/>
<path d="M6440 3798 c-1 -2 -3 -193 -5 -425 -4 -372 -3 -423 10 -423 8 0 18 0
23 0 4 0 9 100 12 222 l5 223 40 3 c22 2 43 9 47 15 11 17 10 57 -1 57 -5 0
-7 10 -5 23 l5 22 -10 -22 c-8 -17 -19 -23 -41 -23 -30 0 -30 0 -30 58 0 33
-3 107 -7 165 -5 95 -8 107 -25 107 -10 0 -18 -1 -18 -2z"/>
<path d="M33 3553 c-7 -2 -13 -16 -13 -29 0 -20 5 -24 30 -24 22 0 30 5 30 18
0 17 -18 43 -29 41 -4 0 -12 -3 -18 -6z"/>
<path d="M190 2989 c0 -77 4 -118 10 -114 6 4 10 55 10 121 0 69 -4 114 -10
114 -6 0 -10 -47 -10 -121z"/>
<path d="M6408 2903 c-7 -28 2 -43 27 -43 22 0 35 17 35 46 0 21 -57 18 -62
-3z"/>
</g>
</svg>
